<svg xmlns="http://www.w3.org/2000/svg" viewBox="0 0 87 87"><defs><style>.cls-1{fill:#1b73e8;}.cls-2{fill:#fff;}</style></defs><g id="Layer_2" data-name="Layer 2"><g id="Layer_1-2" data-name="Layer 1"><circle class="cls-1" cx="43.5" cy="43.5" r="43.5"/><rect class="cls-2" x="23.65" y="23.65" width="39.71" height="39.71" rx="2.04" transform="translate(43.5 -18.02) rotate(45)"/><path class="cls-1" d="M33.35,53a.15.15,0,0,1-.15-.15V42.89a3.23,3.23,0,0,1,1.24-2.53,3.58,3.58,0,0,1,2.2-.69H50.45a.14.14,0,0,0,.14-.14V34.18a.14.14,0,0,1,.24-.11l8.92,8.09a.14.14,0,0,1,0,.21L50.83,50.5a.15.15,0,0,1-.24-.11V45a.14.14,0,0,0-.14-.14H40.31a1.81,1.81,0,0,0-1.8,1.81v6.11a.15.15,0,0,1-.15.15Z"/></g></g></svg>