<?xml version="1.0" encoding="utf-8"?>
<!-- Generator: Adobe Illustrator 27.1.1, SVG Export Plug-In . SVG Version: 6.00 Build 0)  -->
<svg version="1.1" id="Layer_1" xmlns="http://www.w3.org/2000/svg" xmlns:xlink="http://www.w3.org/1999/xlink" x="0px" y="0px"
	 viewBox="0 0 80.4 80.4" style="enable-background:new 0 0 80.4 80.4;" xml:space="preserve">
<style type="text/css">
	.st0{opacity:0.35;}
	.st1{fill:#1B73E8;}
	.st2{fill:#FFFFFF;}
</style>
<g>
	<g class="st0">
		<polygon class="st1" points="70.9,8.8 46.3,3.3 3.9,27 25.2,67.2 68.7,43 76.4,19.4 		"/>
		<path class="st1" d="M77.1,14.7c0.6,1,1.1,2,1.7,2.9c0.5,0.8,0.6,1.6,0.3,2.5c-2,5.9-4,11.8-6,17.7c-0.6,1.8-1.2,3.6-1.8,5.4
			C71,44,70.5,44.6,69.8,45C55.4,53,41,61,26.7,69.1c-1.6,0.9-2.8,0.5-3.7-1C15.6,55,8.3,41.9,1,28.9c-0.9-1.6-0.5-2.8,1.1-3.7
			c14.3-8,28.7-16.1,43-24.1c0.9-0.5,1.7-0.5,2.7-0.3c4,0.9,8.1,1.8,12.1,2.8c3.4,0.8,6.8,1.6,10.3,2.3c1.6,0.3,2.8,1,3.5,2.5
			c0.3,0.7,0.8,1.4,1.2,2.2 M70.8,12.8c-0.4-0.6-0.7-1.1-1-1.7c-0.2-0.5-0.6-0.7-1.1-0.8c-6.9-1.6-13.9-3.1-20.8-4.7
			c-0.6-0.1-1.1-0.1-1.6,0.2C33.1,13.2,20,20.6,6.8,27.9c-0.2,0.1-0.4,0.2-0.5,0.3C13,40.1,19.6,52,26.3,63.9
			c4-2.3,8.2-4.6,12.3-6.9c9.3-5.2,18.6-10.4,27.8-15.6c0.3-0.2,0.6-0.5,0.8-0.8c2.4-6.9,4.7-13.9,7.1-20.8c0.1-0.2,0.1-0.5,0-0.7
			c-0.3-0.7-0.7-1.4-1.1-2.2"/>
		<path class="st2" d="M39.1,48.7c-1.1,3.8-5.1,6-8.9,4.9c-3.8-1.1-6-5.1-5-8.9c1.1-3.8,5.1-6.1,8.9-5C38,40.9,40.2,44.9,39.1,48.7z
			 M31.5,49.1c1.3,0.4,2.7-0.3,3.1-1.7c0.4-1.4-0.3-2.7-1.7-3.1c-1.3-0.4-2.8,0.4-3.1,1.7C29.4,47.4,30.2,48.7,31.5,49.1z"/>
		<path class="st2" d="M36,33.1c4.2,1.2,8.4,2.4,12.6,3.6c1.1,0.3,1.8,1.2,1.8,2.2c0,1-0.6,2-1.6,2.2c-0.5,0.1-1,0.2-1.5,0
			c-8.4-2.3-16.7-4.7-25.1-7.1c-1.4-0.4-2.1-1.7-1.7-3c0.4-1.3,1.6-1.9,3-1.6C27.6,30.7,31.8,31.9,36,33.1z"/>
		<path class="st2" d="M40.6,17.1c3.8,1.1,6,5.1,4.9,8.9c-1.1,3.8-5.1,6.1-8.9,5c-3.9-1.1-6.1-5.1-5-9C32.7,18.2,36.7,16,40.6,17.1z
			 M39.2,21.6c-1.3-0.4-2.7,0.4-3.1,1.7c-0.4,1.3,0.4,2.8,1.7,3.1c1.3,0.4,2.7-0.4,3.1-1.7C41.4,23.4,40.6,22,39.2,21.6z"/>
		<path class="st2" d="M71.8,12.9c1.9,0.5,2.9,2.5,2.4,4.3c-0.5,1.9-2.5,3-4.3,2.4c-1.9-0.5-3-2.5-2.4-4.4
			C68,13.4,70,12.4,71.8,12.9z M71.2,15.1c-0.6-0.2-1.3,0.2-1.5,0.8c-0.2,0.6,0.2,1.3,0.8,1.5c0.6,0.2,1.3-0.2,1.5-0.8
			C72.2,16,71.9,15.3,71.2,15.1z"/>
	</g>
	<g>
		<polygon class="st1" points="68.9,8.8 43.8,10.2 9.3,44.5 40.8,77.4 76.1,42.3 77.1,17.5 		"/>
		<path class="st1" d="M76.5,12.8c0.8,0.8,1.6,1.6,2.4,2.4c0.7,0.6,1,1.4,0.9,2.3c-0.3,6.2-0.6,12.4-1,18.6
			c-0.1,1.9-0.2,3.8-0.3,5.7c0,0.8-0.4,1.5-1,2.1C66,55.5,54.3,67.2,42.7,78.8c-1.3,1.3-2.6,1.3-3.8,0C28.3,68.3,17.7,57.7,7.1,47.1
			c-1.3-1.3-1.3-2.6,0-3.8C18.7,31.6,30.4,20,42,8.4c0.7-0.7,1.5-1,2.5-1c4.1-0.2,8.3-0.4,12.4-0.6c3.5-0.2,7-0.3,10.5-0.6
			c1.6-0.1,3,0.2,4,1.5c0.5,0.6,1.1,1.2,1.8,1.8 M69.9,12.7c-0.5-0.5-1-0.9-1.5-1.4c-0.4-0.4-0.7-0.5-1.3-0.5
			C60.1,11.3,53,11.6,45.9,12c-0.6,0-1,0.2-1.5,0.6c-10.7,10.7-21.3,21.4-32,32C12.2,44.8,12.1,45,12,45
			c9.7,9.7,19.3,19.3,28.9,28.9c3.3-3.3,6.6-6.6,10-10c7.5-7.5,15-15,22.6-22.6c0.3-0.3,0.5-0.6,0.5-1c0.4-7.3,0.8-14.6,1.1-21.9
			c0-0.2,0-0.5-0.2-0.7c-0.5-0.6-1.1-1.2-1.7-1.8"/>
		<path class="st2" d="M49.1,55.9c0,4-3.3,7.2-7.2,7.2c-4,0-7.2-3.3-7.2-7.2c0-4,3.3-7.2,7.2-7.2C46,48.6,49.1,51.8,49.1,55.9z
			 M41.9,58.3c1.4,0,2.5-1.1,2.5-2.4c0-1.4-1.1-2.6-2.5-2.6c-1.4,0-2.5,1.1-2.5,2.5C39.4,57.2,40.5,58.3,41.9,58.3z"/>
		<path class="st2" d="M41.9,41.7c4.4,0,8.7,0,13.1,0c1.1,0,2,0.7,2.3,1.7c0.3,1-0.1,2-0.9,2.6c-0.4,0.3-1,0.4-1.4,0.4
			c-8.7,0-17.4,0-26,0c-1.4,0-2.5-1-2.4-2.4c0-1.3,1-2.3,2.4-2.3C33.2,41.7,37.6,41.7,41.9,41.7z"/>
		<path class="st2" d="M42,25c4,0,7.2,3.2,7.2,7.2c0,4-3.3,7.2-7.2,7.2c-4,0-7.2-3.3-7.2-7.3C34.7,28.2,38,25,42,25z M41.9,29.7
			c-1.4,0-2.5,1.1-2.5,2.5c0,1.4,1.1,2.5,2.5,2.5c1.4,0,2.5-1.1,2.5-2.5C44.4,30.8,43.3,29.7,41.9,29.7z"/>
		<path class="st2" d="M70.9,12.5c1.9,0,3.5,1.6,3.5,3.5c0,1.9-1.6,3.5-3.5,3.5c-2,0-3.5-1.6-3.5-3.6C67.4,14,69,12.5,70.9,12.5z
			 M70.9,14.8c-0.7,0-1.2,0.5-1.2,1.2c0,0.7,0.6,1.2,1.2,1.2c0.7,0,1.2-0.5,1.2-1.2C72.1,15.3,71.6,14.8,70.9,14.8z"/>
	</g>
</g>
</svg>
