<svg xmlns="http://www.w3.org/2000/svg" viewBox="0 0 80.41 80.41"><defs><style>.cls-1{fill:#1b73e8;}.cls-2{fill:#fff;}</style></defs><g id="Layer_2" data-name="Layer 2"><g id="Layer_1-2" data-name="Layer 1"><circle class="cls-1" cx="40.21" cy="40.21" r="40.21"/><path class="cls-2" d="M40.21,56.8c-13.34,0-23.77-15-24.21-15.64a1.69,1.69,0,0,1,0-1.9c.44-.64,10.87-15.64,24.21-15.64s23.76,15,24.2,15.64a1.69,1.69,0,0,1,0,1.9C64,41.79,53.54,56.8,40.21,56.8Zm0-29.83c-9.35,0-17.41,9-20.45,12.86l-.29.37.29.38c3,3.86,11.13,12.86,20.45,12.86s17.39-9,20.44-12.86l.29-.37-.29-.38C57.6,36,49.52,27,40.21,27Z"/><path class="cls-2" d="M40.21,45.94a5.74,5.74,0,1,1,5.73-5.73A5.74,5.74,0,0,1,40.21,45.94Z"/></g></g></svg>