<svg xmlns="http://www.w3.org/2000/svg" viewBox="0 0 258.15 258.15"><defs><style>.cls-1{fill:#fff;}</style></defs><g id="Layer_2" data-name="Layer 2"><g id="Layer_1-2" data-name="Layer 1"><path class="cls-1" d="M86.22,121.51V182h85.71V121.51Zm50.42,37.82a7.57,7.57,0,0,1-15.13,0V144.2a7.57,7.57,0,0,1,15.13,0Z"/><path class="cls-1" d="M129.08,0A129.08,129.08,0,1,0,258.15,129.08,129.22,129.22,0,0,0,129.08,0Zm58,189.58a7.56,7.56,0,0,1-7.56,7.56H78.66a7.56,7.56,0,0,1-7.57-7.56V114a7.56,7.56,0,0,1,7.57-7.56h2.52V98.82a47.9,47.9,0,1,1,95.8,0v7.57h2.52a7.56,7.56,0,0,1,7.56,7.56Z"/><path class="cls-1" d="M161.85,98.82a32.78,32.78,0,0,0-65.55,0v7.57h65.55Z"/></g></g></svg>