<svg xmlns="http://www.w3.org/2000/svg" viewBox="0 0 935.02 166.05"><defs><style>.cls-1{fill:#fff;}.cls-2{fill:#aeaeae;}.cls-3{fill:#f40;}.cls-4{fill:#00acd0;}.cls-5{fill:#00e710;}.cls-6{fill:#731200;}.cls-7{fill:#007349;}.cls-8{fill:#002773;}</style></defs><g id="Layer_2" data-name="Layer 2"><g id="Layer_1-2" data-name="Layer 1"><rect class="cls-1" width="935.02" height="166.05" rx="0.86"/><path class="cls-2" d="M652.87,91V74.28h7.38a4.79,4.79,0,0,1,3.39,1.17,4.37,4.37,0,0,1,.43,5.61,3.4,3.4,0,0,1-2,1.28,3.45,3.45,0,0,1,2.23,1.4,4.25,4.25,0,0,1,.94,2.71,4.32,4.32,0,0,1-1.37,3.26A4.85,4.85,0,0,1,660.38,91Zm2-9.51h5a2.89,2.89,0,0,0,2.13-.75,2.83,2.83,0,0,0,0-3.85,2.91,2.91,0,0,0-2.12-.76h-5Zm0,7.61H660a3.12,3.12,0,0,0,2.26-.78,2.76,2.76,0,0,0,.81-2.09,2.82,2.82,0,0,0-.82-2,3,3,0,0,0-2.25-.84h-5.13Z"/><path class="cls-2" d="M675.58,74.28H678L683.19,82l5.17-7.75h2.43l-6.55,9.62v7h-2.08v-7Z"/><path class="cls-3" d="M717.61,91V88.57l8.49-11.72h-8.49V74.28h12.33v2.34l-8.56,11.76h8.73V91Z"/><path class="cls-4" d="M740.75,91l6.56-16.67H751L757.5,91h-3.32L753,87.78h-7.65L744.07,91Zm5.38-5.8h6l-3-7.94Z"/><path class="cls-5" d="M768.8,91V74.28h7.32a5.22,5.22,0,1,1,0,10.42h-4.39V91Zm2.93-8.82h4a2.9,2.9,0,0,0,2-.73,2.47,2.47,0,0,0,.78-1.9,2.53,2.53,0,0,0-.78-1.92,2.9,2.9,0,0,0-2-.73h-4Z"/><path class="cls-6" d="M793.52,91V74.28h7.35a5.24,5.24,0,0,1,4,1.5,5.16,5.16,0,0,1,1.44,3.72,5.11,5.11,0,0,1-1.45,3.7,5.2,5.2,0,0,1-3.94,1.5h-4.4V91Zm2.93-8.82h4a2.9,2.9,0,0,0,2-.73,2.7,2.7,0,0,0,0-3.82,2.9,2.9,0,0,0-2-.73h-4Z"/><path class="cls-7" d="M818.24,91V74.28h2.93V91Z"/><path class="cls-8" d="M833.14,76.85V74.28h13v2.57h-5V91h-2.93V76.85Z"/><path class="cls-2" d="M88.88,91.13V74.21h5.76a8.38,8.38,0,0,1,6.24,2.41,8.92,8.92,0,0,1,0,12.12,8.43,8.43,0,0,1-6.25,2.39ZM91,89.24h3.68a6.16,6.16,0,0,0,4.74-1.87,7.22,7.22,0,0,0,0-9.4,6.15,6.15,0,0,0-4.76-1.88H91Z"/><path class="cls-2" d="M115.79,91.13V74.21h2.1V91.13Z"/><path class="cls-2" d="M132.8,89a9.29,9.29,0,0,1,0-12.65,8.39,8.39,0,0,1,6.14-2.44,8.11,8.11,0,0,1,6.61,3.15l-1.7,1.06a6,6,0,0,0-2.13-1.7,6.54,6.54,0,0,0-7.44,1.3,7.5,7.5,0,0,0,0,9.9,6.16,6.16,0,0,0,4.65,2,6.37,6.37,0,0,0,2.62-.55,6.79,6.79,0,0,0,2-1.28V84.3h-5.8V82.42h7.9v6.11a8.59,8.59,0,0,1-6.68,2.93A8.41,8.41,0,0,1,132.8,89Z"/><path class="cls-2" d="M158.24,91.13V74.21h2.11V91.13Z"/><path class="cls-2" d="M172.29,76.09V74.21h12.83v1.88h-5.38v15h-2.1v-15Z"/><path class="cls-2" d="M193.61,91.13l6.82-16.92h2.62l6.79,16.92h-2.4l-1.5-3.76h-8.42L196,91.13Zm4.54-5.64h7.19l-3.61-9.13Z"/><path class="cls-2" d="M220.92,91.13V74.21H223v15h7.86v1.89Z"/><path class="cls-2" d="M258.58,91.13V74.21h6.76a5.31,5.31,0,0,1,3.81,1.39,5.44,5.44,0,0,1,.22,7.21,4.73,4.73,0,0,1-3.09,1.45l4.57,6.87h-2.48l-4.29-6.69h-3.39v6.69Zm2.11-8.58h4.43a3.38,3.38,0,0,0,2.45-.91,3.08,3.08,0,0,0,1-2.33,3,3,0,0,0-1-2.34,3.44,3.44,0,0,0-2.45-.88h-4.43Z"/><path class="cls-2" d="M283.18,91.13V74.21h11.09v1.88h-9v5.44h8.79v1.88h-8.79v5.83h9v1.89Z"/><path class="cls-2" d="M305.15,74.21h2.1l3.86,14.52,4-14.52h1.74l3.88,14.1,3.52-14.1h2.36l-4.84,16.92H319.7L316,77.53l-3.71,13.6H310Z"/><path class="cls-2" d="M335.37,91.13l6.82-16.92h2.62l6.8,16.92H349.2l-1.49-3.76h-8.43l-1.49,3.76Zm4.55-5.64h7.18l-3.61-9.13Z"/><path class="cls-2" d="M363,91.13V74.21h6.76a5.31,5.31,0,0,1,3.81,1.39,5.44,5.44,0,0,1,.22,7.21,4.73,4.73,0,0,1-3.09,1.45l4.57,6.87h-2.49l-4.28-6.69h-3.4v6.69Zm2.1-8.58h4.44a3.39,3.39,0,0,0,2.45-.91,3.08,3.08,0,0,0,1-2.33A3,3,0,0,0,372,77a3.46,3.46,0,0,0-2.45-.88h-4.44Z"/><path class="cls-2" d="M387.57,91.13V74.21h5.75a8.35,8.35,0,0,1,6.24,2.41,8.91,8.91,0,0,1,0,12.12,8.44,8.44,0,0,1-6.26,2.39Zm2.11-1.89h3.67a6.18,6.18,0,0,0,4.75-1.87,7.25,7.25,0,0,0,0-9.4,6.18,6.18,0,0,0-4.77-1.88h-3.67Z"/><path class="cls-2" d="M413.43,88.75l1.27-1.64A6.61,6.61,0,0,0,420,89.55a4.36,4.36,0,0,0,3-.88,2.71,2.71,0,0,0,1-2.06,2.19,2.19,0,0,0-1-1.89,8.06,8.06,0,0,0-2.47-1.12l-3-.82A5.53,5.53,0,0,1,415,81.34a3.65,3.65,0,0,1-1-2.72,4.13,4.13,0,0,1,1.63-3.38,6.36,6.36,0,0,1,4.14-1.32,7.74,7.74,0,0,1,5.92,2.37l-1.22,1.55a6.15,6.15,0,0,0-4.88-2,4,4,0,0,0-2.5.76,2.33,2.33,0,0,0-1,2,1.79,1.79,0,0,0,.78,1.49,5.76,5.76,0,0,0,1.88.9l2.41.7a20.4,20.4,0,0,1,2.38.85,4.2,4.2,0,0,1,1.78,1.5,4.27,4.27,0,0,1,.73,2.5A4.72,4.72,0,0,1,424.54,90a6.5,6.5,0,0,1-4.66,1.46A8.19,8.19,0,0,1,413.43,88.75Z"/><path class="cls-2" d="M454.21,91.13V74.21H461a4.94,4.94,0,0,1,5.27,5.1,5,5,0,0,1-1.43,3.63A5.08,5.08,0,0,1,461,84.41h-4.66v6.72Zm2.11-8.6h4.43a3.37,3.37,0,0,0,2.44-.9,3.1,3.1,0,0,0,.95-2.33,3.05,3.05,0,0,0-.95-2.31,3.37,3.37,0,0,0-2.44-.9h-4.43Z"/><path class="cls-2" d="M479.87,89a9.7,9.7,0,0,1,0-12.54,8.52,8.52,0,0,1,12,0,9.6,9.6,0,0,1,0,12.54,8.55,8.55,0,0,1-12,0Zm-.2-6.27a7.21,7.21,0,0,0,1.7,4.93,5.68,5.68,0,0,0,4.51,1.94,5.74,5.74,0,0,0,4.52-1.94,7.92,7.92,0,0,0,0-9.87,6.25,6.25,0,0,0-9,0A7.21,7.21,0,0,0,479.67,82.68Z"/><path class="cls-2" d="M504.68,74.21h2.11l3.86,14.52,4-14.52h1.75l3.87,14.1,3.52-14.1h2.37l-4.85,16.92h-2.08l-3.71-13.6-3.71,13.6H509.5Z"/><path class="cls-2" d="M537.85,91.13V74.21h11.09v1.88h-9v5.44h8.79v1.88H540v5.83h9v1.89Z"/><path class="cls-2" d="M561.44,91.13V74.21h6.76A5.31,5.31,0,0,1,572,75.6a5.44,5.44,0,0,1,.22,7.21,4.73,4.73,0,0,1-3.09,1.45l4.57,6.87h-2.49l-4.28-6.69h-3.4v6.69Zm2.1-8.58H568a3.39,3.39,0,0,0,2.45-.91,3.08,3.08,0,0,0,1-2.33,3,3,0,0,0-1-2.34,3.46,3.46,0,0,0-2.45-.88h-4.44Z"/><path class="cls-2" d="M586,91.13V74.21h11.08v1.88h-9v5.44h8.79v1.88h-8.79v5.83h9v1.89Z"/><path class="cls-2" d="M609.63,91.13V74.21h5.75a8.38,8.38,0,0,1,6.24,2.41,8.89,8.89,0,0,1,0,12.12,8.42,8.42,0,0,1-6.25,2.39Zm2.1-1.89h3.68a6.15,6.15,0,0,0,4.74-1.87,6.6,6.6,0,0,0,1.75-4.69A6.69,6.69,0,0,0,620.17,78a6.15,6.15,0,0,0-4.76-1.88h-3.68Z"/></g></g></svg>